<mxfile host="app.diagrams.net" agent="Mozilla/5.0 (Windows NT 10.0; Win64; x64) AppleWebKit/537.36 (KHTML, like Gecko) Chrome/140.0.0.0 Safari/537.36" version="28.2.5" pages="2">
  <diagram name="Page-1" id="SVzkLsDLRz67xNMIyuUc">
    <mxGraphModel dx="1445" dy="321" grid="1" gridSize="10" guides="1" tooltips="1" connect="1" arrows="1" fold="1" page="1" pageScale="1" pageWidth="850" pageHeight="1100" background="light-dark(#FFFFFF,#FFFFFF)" math="0" shadow="0">
      <root>
        <mxCell id="0" />
        <mxCell id="1" parent="0" />
        <mxCell id="TLbA5cOxIWb0VQ_1iG9y-2" value="" style="rounded=0;whiteSpace=wrap;html=1;strokeColor=#36393d;fillColor=light-dark(#FFFFFF,#FFFFFF);" vertex="1" parent="1">
          <mxGeometry x="-720" y="80" width="700" height="60" as="geometry" />
        </mxCell>
        <mxCell id="9oQfoqcF0NCLbo8Eg7Ur-1" value="" style="shape=image;imageAspect=0;aspect=fixed;verticalLabelPosition=bottom;verticalAlign=top;image=data:image/png,iVBORw0KGgoAAAANSUhEUgAAAOEAAADhCAMAAAAJbSJIAAABL1BMVEX////hQyj8aw7/nhv//v/fRCfgLwf52M38bAz+//3hQybhQyr8axH8///9//3//f/8ZgD9WQDhQi3+bgr8ZwD/oRr9lQDeJQDgOxv/WAD5bQ/+ahP/nBz9mgD76ufcIQDfNRDtUyD0YBjlSCX4ZhT++PX54dv5ycf/8+/nfG3wo6Dztq/dOgDmIgDlaE/ka1zsjX7nWEPoZVXwvbfvqp/qcmThPhf0zcfwranlVDfpgmvsl4fmXUntt6v2zsnqjILsmI752tjsoJPpgXz0uLjrnov0uKn02cv+1sD8rZDvWxz5k2T9vqX8poH+ybT7gj/+fi/9h0j8mnL7qIj98OH7h1P8fUL+qob9jRf9fRH8xqv+gxP6tZT7uGn9rEn/0qv8yI/8qDr948n7wH38sVrLuchqAAANWklEQVR4nO2da3fbNhKGQZqUSZCgeNGFEWVLtmzn1uaeuN2madPurhPZyW67yq6dXtKm/f+/YWcgW6YkUiQlkFJ68LT50HMaCC8wmHkBUBQhEolEIpFIJBKJRCKRSCQSiUQikUgkEolEIpFIJBKJRBga/FMWrMS28+MQ0yyrbZP/u27qDiuv8RKbLoC2fVRa20c3D0trOxeaQ27d7vXbtTsQrIKB8Lz72ee13r3d9S7GW7WQ6pZSuy+8ZY08qFFd163PywuRbBzyUKG6oitK7a7wxm+2LWhYGdC+8Kbzw47aOlUsqlM6EN74Iwr6FN2yao+Ft52fb0IcZqR9xOrC1iKm0EMcPK4xfEQcc11rsU2vFIZ3GKmLahblPO5Ti7fsW71bTFtTXXxco5cCYTkKrPyo8H5Ifd4wTOITsq58em8yhRCmuwL9ByOsbVl8Dn2fKn1SX8McYi3sKcpEIg60KBwNglS5pna8DvcGH3kn3gtqifNYGmFPw3jbt0W1XARTY89ovBe9XWEKMUiVOO11JBqTHNf0WCf0/hfC2namg1ShffGGIk8vbodTvaBfCmvbJH+Lhwd4iofC2i7A4XQgWVZvV1TTDulNKaR+ex3m9G5fn1b4TFyYHtemFSrhV8Lazs+XynQkKeFzYW0/CK142+DfatVuhs2x6Z6aQ8x4u0yQf2wrs/RvVrrh11gdhtmns72AjCfEm97sK9ZM2/Q+cYTvstNxmElqyuwUKvSeIOvxINRnFSq9wyq9KdPIcZ/OS2yLOVVhbTonUKgrzMask0fhXB8gTL9efa1AKL6oJbStUPFnQYtA0z1PKCBMYSf4TdLoKe2XIjqemyeJnYAwXXkS6w5JnEI9fCCi47mhs3l0HEjh6v7RTAtSq11luTiuzacCHGf6aOWm6+SrxNFTLCxGjrCTkgxuh8kKrd7KGR2CdC5HjydReU7qWlXz2B4kKoRx/nrltl+2k9vWaXsXJArofQ7uhlZyJCnh05Ub/zY5PhTfCr/Fs5PS0UyHPBwk6wN6K39APzlIkRrTKphDGMTdtp9gOsb0H5PV3HdakHKFN1kFCiFOvg0pTRvo8DZxVqr634Xpcxjer8LXaGi6rdQ5VNorGuRwblsRo1fNdeJxYkWejPPjFSQ67OWixvV+FfZbI0+THduVwtvLe1OGQbpIoUVFSknjVi99oQC0trxC0ySDlDLEsZRaFfY7xXRP6C9/3WeSo/nzi/joWWXbb16O9EWjDIX52fdLOyuT3MkYPkhkpd60ocAXtdRKwbGgE8tikjSvNKH/91KdKSbJBymmaoL+2fHSH7C7MEgR+rzsayjWXjiD2Ae6/Fp50s8YPn5PWWbV18jdflYXcK0su42bOWVOIvyuzINTcJzPs7qg60r7BVkuG4DhzR6/FapRNizHQoEgDr8ibKlePHmWmWmg3r4QLSuGRv6Rlc25xmWz6cMwO0pFbEEXkXLCMEP/n9sn20WBv9FW5k+Z5+ZQ7x2WWBJv1rLHGLBqS9CvLXT0V+h6/wtWL+2E/2mYIxWAQt2CnhSD6hlm6RJq4aM7ZRWMw17eXviFFfKBydO4r7e3iVlCxTAhMJ6knkBVSvgNK0MhZtL045lqaZdy5sbq7GVb34g5VGqPy5hCxwTTrSTfV1QNvVdGLoUS1N4Iecjnt8QLJBq727eszYhSJbxTgkIGptuim5FqfBqWoJDsesM9ZQOyqWX5e/veqxIUvm5EamAPB1DNMVRpxVmHwgqhIG8wPAhUo3HKxH8ZKYCGbVsN1OHAx4fpLL/a6QR5/mAYBbaqGqrqQWIQnE933ci2DcPAP9GQKn6OjY5IIHT27ADG2ICBNlT31ZK77HTO3MgYDx9INNR9iNYqJVr6MIDPhs+3VTvoqO4bwUVfY6euEanXGMHBwLKUCqoH3gL5g32u75pGR9QzdGOgMRdjQ53VWL5ASn3UF6gzeEuelKQIhI3TjRmFEKl2sL/oKkwMkNBg/nCBTONui/sGC1f4yrWnP2W84oNhri3xCgLpHoymrRpzCt8ykSvRJG/d2Y+4nMpo4JeyHMFAQQH0BwfB/Pxxha8F6kMjf5aiUFWDIT6ILVwi5UV+L8DkmajwjUiFYB9epyk0bMg4VPx6hGLk0wNe3+ciFAFXI1Ah1NYfUxViF/ZK8DfU3+Or3U6O0sa/BArEc59UheNI3bdw2QgTB+j+cK5CTPFvoSVfW6wQ5vFgoIizcfitNesgOTqvFQrd52vkzSKFWCmDPUtcpILHVhNqYJzGDwL14YNQPy+MUnSqwXD+8fOlFQ6xRixU6P4oUiCYtvRqMVEJOdXH7z3TlUwA7Dt9nefQxbj/ERmlpsnSKv4E3FpFkFOtFXfGUAQHdkqFmFJ4JtKXgj868bKmEHeOYFRB30oKfWsI8jIFwgaRCTwV1sw6y1LIy5ZtHFBlpYxj6fv8LCFToif8Pr/T6GSOqzqu/pBxih9Y4bkP1NRBkstOVMhE33a/caPM1c8l8py6xDRilvL3Lo9hMoFiIfp25q3byTW2sBohUotLBBvj0/3FNiaGeyb87TWHXiOXQvSpkFMLZxuq+AM7yJNFOd6R8HcbsR8aUfYHX6qESC2iES0t+NB82sYf4IpVx8msiFM9OKAF7jiwwlj5IxSWgvuzeIGall8hnnAEAyW3t/EpHdhpW90EOqo3Eq/QJG8a+QcZ1mKwl9+9+XvcMOQfwXfiBYLCkWfbdq6iyHthY6Rm10WIZgWqfO7545RyMUMcdtoo0g/DDqJBtr+BUQAfmu1h4jTE7g0vgdQ8umF0cudTbr1g05ilUIcqz88LC+AJ9aRXOKaDviZ3L8Y+NTjIWozWfv4ieEnjXSnP0yDm9N1FHvA8FfeMc8ogf0II+/Sg4PwZkeGNnNLeZPjKy51pJmCkJpRGvO5U8Dy0QJVAOoZ3xpzyvv50WqDsjzHwdiNBIj/x3ec7wUIhip7bqZf17i+I/k6RosgVQqGLBvNhiocBeFiBq7VQe+4h00p7dM90zJFbIJ1ed2vPt2LfhoEZtSCHFpw8GIqoE904KvMpaE1z2JFXtF/8KG6fxkwcHnRYw6BwQx27pFp/rdAEidtZ5xnz4AlORK8frsTTqoNiRX6sUPXOIJBK/D43f+vtEhJxtRkxn0r9vcgoWAR5O957ZpplfxfYcciJVzTdqOOcOr7agEKYcSWRSGTYN15V8t42SNSjjlvMKav8joxbcepb9MAoPn9G1HBPqnmvMMOXIxevi9x7QqRCUsVHRopnGfe/h1CuKnnjAP8m81nhlIqP4UCk4qWZkXHrkoT3P7w+qfL9iaMIbXixnkYwd+dB4oMHqXR4osIIrfwNn+apB8W/mKeMOt1m8yJSO/ltQ9ToqDaP0LL2E2mA+T3zAqOQE7cvmltbzea5G0W5J7FjRw3vNcP3NFYrEGKGsd2gwIYRpuO8CQpBYxcmM/ffMlx3e/zyrTW8HtIh7zw1sjMjFWpDxCN06xKIVJsvsYwhMYyI59C1ASvjvZentMG6iy6a1wK7EKlq9m4aU9KN1yLvCYsCW202CtxMiaDFgAidKOxudZvdIHstgkD3pISHgYuA6/8006d2oguI0IlAzDbwXxeZ0d1xf8AqX+lbzBI0EohUN30+YPoiOxahMZXni8w31kxP6LNry4KzuMin4lH2+dQETkK12VUXRGoUoA/dAPAXPBhLj9ROFICUOX1bXDNW/7SRcd9BDl1nlrkC6qIGfup92o4qumheyplVCNlmq3meJhF9KFvxbT5i2e24sOCmKwDsIKLzJHVxnWDg4pupDi+TRlU7pUKcup2ZZXVZ5ZNiNBasF3bUmSr+tsqrfGlfhV0Sh5G3njF9upQaoVMSmz/FfSrMYcP7mfvQTfihoBj4q0gjYyqngg/FnLlwCkFgd9qn2q56Qhj40CrezVYUE3KqjbtbXFdxH5pFF3KqgdOHLubdmn89ZxGMXeZU7kOzwjM+j82fIrxU7djuZlT5VBzCRqoLOwK1cZ5gY1IVdsGKGzbsdRvuUfV7+QKY2rj6j3NofoX4vzYhUg3vnUmqOWxaAejiey/Jh+aIVK+EZ0jEg/deo+ZOUYHAzs7Htf3aShHGvzT3S6vwHLZ+xXeWbPAavELDIzGTfSgqsfUb2GynsrfoCmDU3YHFmF0SL10PROimZ5g5nD9bkD0WG5ordn4/ZCu+93QtfGh189kaiFD8Wa4NdGmLwB8SG+3s5FHY+shvBT+BJDMHg0jdWrC54DsriNB193N5HI391lq4feo2W398eikmBjMhUhcFarP1cfO28gUwYZvODn9NNTjN1u+3Svwp2qowyW9J1R+da+uPjbfZOcAZOkmYRSiUrVfCvxWyDuqOw0hCpDZ3miNW3+S9YF5Mh/9651yktn5heJr2F1B4xUlra7IpxiX4YTN+dFsgmFObVxp3tkafxFawECZjf7QubzB4hFb6C1VVoBGHfdzZwa08Rihh9U+/ECZgfviz+euHT9iHZqHhDp5two1ZWaCLc8y/XIqJ4fCTpr+AUZNIJBKJRCKRSCQSiUQikUgkEolEIpFIJBKJRCJJ5v8KiSYKrMW0TwAAAABJRU5ErkJggg==;" vertex="1" parent="1">
          <mxGeometry x="-70" y="90" width="40" height="40" as="geometry" />
        </mxCell>
      </root>
    </mxGraphModel>
  </diagram>
  <diagram id="0UFpBH-dmW0CTuqKE_nf" name="Page-2">
    <mxGraphModel grid="1" page="1" gridSize="10" guides="1" tooltips="1" connect="1" arrows="1" fold="1" pageScale="1" pageWidth="850" pageHeight="1100" math="0" shadow="0">
      <root>
        <mxCell id="0" />
        <mxCell id="1" parent="0" />
      </root>
    </mxGraphModel>
  </diagram>
</mxfile>
